<?xml version="1.0" encoding="UTF-8" standalone="no"?>
<!DOCTYPE svg PUBLIC "-//W3C//DTD SVG 1.1//EN" "http://www.w3.org/Graphics/SVG/1.1/DTD/svg11.dtd">
<svg width="100%" height="100%" viewBox="0 0 256 256" version="1.1" xmlns="http://www.w3.org/2000/svg" xmlns:xlink="http://www.w3.org/1999/xlink" xml:space="preserve" xmlns:serif="http://www.serif.com/" style="fill-rule:evenodd;clip-rule:evenodd;stroke-linecap:round;">
    <g transform="matrix(2,0,0,2,2.84217e-14,0)">
        <path d="M128,12L128,116C128,122.623 122.623,128 116,128L12,128C5.377,128 0,122.623 0,116L0,12C0,5.377 5.377,0 12,0L116,0C122.623,0 128,5.377 128,12Z" style="fill:rgb(14,165,233);"/>
    </g>
    <g transform="matrix(0.950065,-0.950065,0.950065,0.950065,-131.204,123.716)">
        <g transform="matrix(2,3.33067e-16,8.88178e-16,4.93474,6.15932,-177.155)">
            <path d="M24,68.601L23.956,68.601C21.472,68.601 19.456,67.784 19.456,66.777L19.456,61.189C19.456,60.182 21.472,59.365 23.956,59.365L24,59.365L24,56.824C24,55.817 26.016,55 28.5,55L99.5,55C101.984,55 104,55.817 104,56.824L104,59.365L105.271,59.365C107.754,59.365 109.771,60.182 109.771,61.189L109.771,66.777C109.771,67.784 107.754,68.601 105.271,68.601L104,68.601L104,71.176C104,72.183 101.984,73 99.5,73L28.5,73C26.016,73 24,72.183 24,71.176L24,68.601ZM29.77,65.38C29.77,65.656 30.323,65.879 31.003,65.879C31.683,65.879 32.235,65.656 32.235,65.38L32.235,64.671L34.784,64.671L34.784,65.161C34.784,65.57 35.603,65.902 36.613,65.902C37.622,65.902 38.442,65.57 38.442,65.161L38.442,64.671L41.235,64.671L41.235,65.38C41.235,65.656 41.788,65.879 42.468,65.879C43.148,65.879 43.7,65.656 43.7,65.38L43.7,64.671L61.016,64.671C61.671,65.078 62.804,65.346 64.09,65.346L64.253,65.346C65.54,65.346 66.672,65.078 67.328,64.671L84.643,64.671L84.643,65.38C84.643,65.656 85.196,65.879 85.876,65.879C86.556,65.879 87.108,65.656 87.108,65.38L87.108,64.671L89.657,64.671L89.657,65.161C89.657,65.57 90.476,65.902 91.486,65.902C92.496,65.902 93.315,65.57 93.315,65.161L93.315,64.671L96.109,64.671L96.109,65.38C96.109,65.656 96.661,65.879 97.341,65.879C98.021,65.879 98.573,65.656 98.573,65.38L98.573,62.338C98.573,62.062 98.021,61.838 97.341,61.838C96.661,61.838 96.109,62.062 96.109,62.338L96.109,63.088L93.315,63.088L93.315,62.602C93.315,62.193 92.496,61.861 91.486,61.861C90.476,61.861 89.657,62.193 89.657,62.602L89.657,63.088L87.108,63.088L87.108,62.338C87.108,62.062 86.556,61.838 85.876,61.838C85.196,61.838 84.643,62.062 84.643,62.338L84.643,63.088L67.392,63.088C66.748,62.658 65.583,62.371 64.253,62.371L64.09,62.371C62.76,62.371 61.595,62.658 60.951,63.088L43.7,63.088L43.7,62.338C43.7,62.062 43.148,61.838 42.468,61.838C41.788,61.838 41.235,62.062 41.235,62.338L41.235,63.088L38.442,63.088L38.442,62.602C38.442,62.193 37.622,61.861 36.613,61.861C35.603,61.861 34.784,62.193 34.784,62.602L34.784,63.088L32.235,63.088L32.235,62.338C32.235,62.062 31.683,61.838 31.003,61.838C30.323,61.838 29.77,62.062 29.77,62.338L29.77,65.38Z" style="fill:white;"/>
        </g>
        <g transform="matrix(1.83231,-0.801638,0.801638,1.83231,-38.7654,88.016)">
            <path d="M30,60L94,88" style="fill:none;fill-rule:nonzero;stroke:rgb(229,231,235);stroke-width:4px;"/>
        </g>
        <g transform="matrix(1.83231,-0.801638,0.801638,1.83231,-38.7654,18.4668)">
            <path d="M30,60L94,88" style="fill:none;fill-rule:nonzero;stroke:rgb(229,231,235);stroke-width:4px;"/>
        </g>
    </g>
</svg>
